# xmcd
#
# Track frame offsets: 
#        150
#        29964
#        54678
#        83616
#        111877
#        141043
#        162819
#        187307
#        218309
#
# Disc length: 3336 seconds
#
# Revision: 0
# Processed by: cddbd v1.4PL0 Copyright (c) Steve Scherf et al.
# Submitted via: ExactAudioCopy v0.95a3
#
DISCID=7c0d0609
DTITLE=Various Artist - Relaxing Blues
DYEAR=1900
DGENRE=Blues
TTITLE0=Desert Blues
TTITLE1=Delta Blues
TTITLE2=Rainy Day Blues
TTITLE3=Fireside Blues
TTITLE4=Forest Blues
TTITLE5=Bayou Blues
TTITLE6=Windy City Blues
TTITLE7=Rainman Blues
TTITLE8=Howling Wolf Blues
EXTD=
EXTT0=
EXTT1=
EXTT2=
EXTT3=
EXTT4=
EXTT5=
EXTT6=
EXTT7=
EXTT8=
PLAYORDER=
